<svg width="133" height="116" viewBox="0 0 133 116" fill="none" xmlns="http://www.w3.org/2000/svg">
<path opacity="0.18" d="M73.6737 0.698445C71.999 0.998903 70.3469 1.41429 68.7292 1.94167C58.005 5.43994 37.6309 10.8599 29.6828 18.8408C20.4682 28.116 23.2953 40.3207 14.0415 49.541C6.37576 57.1689 -0.0195606 64.6361 4.49577e-05 76.2094C0.0314138 96.603 17.645 103.69 34.1137 108.827C53.6251 114.906 74.3756 117.702 94.7222 114.926C103.349 113.749 112.057 111.486 119.096 106.368C129.624 98.7208 134.686 84.6806 132.498 71.9817C131.388 65.5381 129.448 59.7142 128.918 53.0941C128.228 44.4661 129.683 35.6106 127.15 27.1747C122.739 12.4796 107.301 3.64374 92.197 0.969051C86.0879 -0.121218 79.7593 -0.407512 73.6737 0.698445Z" fill="#8CC5F9"/>
</svg>
